<svg width="50" height="49" viewBox="0 0 50 49" fill="none" xmlns="http://www.w3.org/2000/svg">
<path d="M35.3105 41.405C33.3096 43.3446 31.125 43.0383 29.0221 42.1196C26.7967 41.1804 24.755 41.1396 22.4071 42.1196C19.4671 43.3854 17.9155 43.0179 16.1596 41.405C6.1963 31.1354 7.6663 15.4962 18.9771 14.9246C21.7334 15.0675 23.6525 16.4354 25.2655 16.5579C27.6746 16.0679 29.9817 14.6592 32.5542 14.8429C35.6371 15.0879 37.9646 16.3129 39.4959 18.5179C33.1259 22.3358 34.6367 30.7271 40.4759 33.075C39.3121 36.1375 37.8013 39.1796 35.2901 41.4254L35.3105 41.405ZM25.0613 14.8021C24.755 10.2492 28.4505 6.4925 32.6971 6.125C33.2892 11.3925 27.9196 15.3125 25.0613 14.8021Z" fill="#4A4A4A"/>
</svg>
