<svg width="102" height="102" viewBox="0 0 102 102" fill="none" xmlns="http://www.w3.org/2000/svg">
<path d="M40.5873 64.3875L76.606 28.3688C77.456 27.5188 78.4477 27.0938 79.581 27.0938C80.7144 27.0938 81.706 27.5188 82.556 28.3688C83.406 29.2188 83.831 30.2288 83.831 31.399C83.831 32.5692 83.406 33.5778 82.556 34.425L43.5623 73.525C42.7123 74.375 41.7206 74.8 40.5873 74.8C39.454 74.8 38.4623 74.375 37.6123 73.525L19.3373 55.25C18.4873 54.4 18.0793 53.3913 18.1133 52.224C18.1473 51.0567 18.5907 50.0466 19.4435 49.1937C20.2964 48.3409 21.3065 47.9159 22.4738 47.9187C23.6411 47.9216 24.6498 48.3466 25.4998 49.1937L40.5873 64.3875Z" fill="white"/>
</svg>
