<svg width="67" height="67" viewBox="0 0 67 67" fill="none" xmlns="http://www.w3.org/2000/svg">
<path d="M33.4999 35.4765L18.8548 50.1216C18.5943 50.3822 18.2741 50.5217 17.8945 50.5403C17.5148 50.559 17.1761 50.4194 16.8783 50.1216C16.5805 49.8238 16.4316 49.4944 16.4316 49.1334C16.4316 48.7723 16.5805 48.4429 16.8783 48.1451L31.5234 33.5L16.8783 18.8549C16.6178 18.5944 16.4782 18.2743 16.4596 17.8946C16.4409 17.5149 16.5805 17.1762 16.8783 16.8784C17.1761 16.5807 17.5055 16.4318 17.8666 16.4318C18.2276 16.4318 18.557 16.5807 18.8548 16.8784L33.4999 31.5235L48.145 16.8784C48.4055 16.6179 48.7266 16.4783 49.1081 16.4597C49.4859 16.4411 49.8237 16.5807 50.1215 16.8784C50.4193 17.1762 50.5681 17.5056 50.5681 17.8667C50.5681 18.2277 50.4193 18.5572 50.1215 18.8549L35.4764 33.5L50.1215 48.1451C50.382 48.4057 50.5216 48.7267 50.5402 49.1082C50.5588 49.486 50.4193 49.8238 50.1215 50.1216C49.8237 50.4194 49.4943 50.5683 49.1332 50.5683C48.7722 50.5683 48.4428 50.4194 48.145 50.1216L33.4999 35.4765Z" fill="#4A4A4A"/>
</svg>
