<svg width="25" height="23" viewBox="0 0 25 23" fill="none" xmlns="http://www.w3.org/2000/svg">
<path d="M12.5 0.107422C19.4054 0.107422 25 4.47734 25 9.86563C25 15.2539 19.4054 19.6238 12.5 19.6238C11.7405 19.6238 10.9983 19.5723 10.2778 19.4691C9.55729 19.9719 5.39062 22.868 4.99566 22.9238C4.99566 22.9238 4.83507 22.984 4.69618 22.9066C4.55729 22.8293 4.58333 22.6188 4.58333 22.6188C4.62674 22.3352 5.6684 18.7859 5.85937 18.1285C2.33941 16.4055 0 13.3461 0 9.86133C0 4.47305 5.59462 0.107422 12.5 0.107422ZM3.74132 6.94805C3.35069 6.94805 3.03385 7.26172 3.03385 7.64844C3.03385 8.03516 3.35069 8.34883 3.74132 8.34883H4.86545V12.5898C4.86545 12.968 5.19097 13.273 5.58594 13.273C5.9809 13.273 6.30642 12.968 6.30642 12.5898V8.34883H7.43056C7.82118 8.34883 8.13802 8.03516 8.13802 7.64844C8.13802 7.26172 7.82118 6.94805 7.43056 6.94805H3.73698H3.74132ZM9.85243 6.94805C9.38368 6.95664 9.01476 7.30898 8.89323 7.65273L7.17014 12.1473C6.95312 12.8219 7.1441 13.0711 7.33941 13.1613C7.4783 13.2258 7.63889 13.2602 7.79948 13.2602C8.09896 13.2602 8.32899 13.1398 8.39844 12.9465L8.75434 12.0184H10.9549L11.3108 12.9422C11.3802 13.1355 11.6102 13.2559 11.9097 13.2559C12.0703 13.2559 12.2266 13.2215 12.3698 13.157C12.5694 13.0668 12.7604 12.8176 12.5391 12.143L10.816 7.65273C10.6944 7.30898 10.3255 6.95664 9.85243 6.94805ZM17.704 6.94805C17.3047 6.94805 16.9835 7.27031 16.9835 7.66133V12.5469C16.9835 12.9422 17.309 13.2602 17.704 13.2602C18.099 13.2602 18.4245 12.9379 18.4245 12.5469V10.9914L18.6762 10.7422L20.3646 12.9594C20.5035 13.1398 20.7118 13.243 20.9418 13.243C21.0981 13.243 21.25 13.1957 21.3759 13.1012C21.5278 12.9852 21.6276 12.8176 21.6536 12.6285C21.6797 12.4395 21.6319 12.2504 21.5148 12.1L19.7396 9.77109L21.3845 8.14688C21.4974 8.03516 21.5538 7.88047 21.5451 7.71289C21.5365 7.54531 21.4583 7.38633 21.3325 7.26172C21.1979 7.12852 21.0156 7.05117 20.8377 7.05117C20.6814 7.05117 20.5425 7.10703 20.4384 7.21016L18.4288 9.20391V7.66992C18.4288 7.27461 18.1033 6.95664 17.7083 6.95664L17.704 6.94805ZM13.7413 6.94805C13.3377 6.94805 13.0078 7.27031 13.0078 7.66133V12.5082C13.0078 12.8691 13.316 13.1613 13.6979 13.1656H16.0113C16.3932 13.1656 16.7014 12.8691 16.7014 12.5082C16.7014 12.1473 16.3889 11.8551 16.0113 11.8551H14.4792V7.66133C14.4792 7.26602 14.1493 6.94805 13.7413 6.94805ZM10.5729 10.7551H9.13194L9.85243 8.73125L10.5729 10.7551Z" fill="black"/>
</svg>
