<svg width="69" height="69" viewBox="0 0 69 69" fill="none" xmlns="http://www.w3.org/2000/svg">
<path d="M48.3 17.25H55.2V65.55H13.8V17.25H20.7V13.8C20.7 11.97 21.427 10.215 22.721 8.92099C24.015 7.62699 25.77 6.90002 27.6 6.90002H41.4C43.23 6.90002 44.985 7.62699 46.279 8.92099C47.573 10.215 48.3 11.97 48.3 13.8V17.25ZM58.65 17.25H62.1C63.93 17.25 65.685 17.977 66.979 19.271C68.273 20.565 69 22.32 69 24.15V58.65C69 60.48 68.273 62.2351 66.979 63.5291C65.685 64.8231 63.93 65.55 62.1 65.55H58.65V17.25ZM10.35 17.25V65.55H6.9C5.07001 65.55 3.31496 64.8231 2.02096 63.5291C0.726962 62.2351 0 60.48 0 58.65V24.15C0 20.355 3.105 17.25 6.9 17.25H10.35ZM27.6 13.8V17.25H41.4V13.8H27.6Z" fill="url(#paint0_linear_429_398)"/>
<defs>
<linearGradient id="paint0_linear_429_398" x1="34.5" y1="6.90002" x2="34.5" y2="65.55" gradientUnits="userSpaceOnUse">
<stop stop-color="#A5C4FF"/>
<stop offset="1" stop-color="#B69CFE"/>
</linearGradient>
</defs>
</svg>
