<svg width="33" height="38" viewBox="0 0 33 38" fill="none" xmlns="http://www.w3.org/2000/svg">
<path d="M1 37V34.75C1 30.5728 2.63303 26.5668 5.53984 23.6131C8.44666 20.6594 12.3891 19 16.5 19M16.5 19C20.6109 19 24.5533 20.6594 27.4602 23.6131C30.367 26.5668 32 30.5728 32 34.75V37M16.5 19C18.8491 19 21.1019 18.0518 22.7629 16.364C24.424 14.6761 25.3571 12.3869 25.3571 10C25.3571 7.61305 24.424 5.32387 22.7629 3.63604C21.1019 1.94821 18.8491 1 16.5 1C14.1509 1 11.8981 1.94821 10.2371 3.63604C8.57602 5.32387 7.64286 7.61305 7.64286 10C7.64286 12.3869 8.57602 14.6761 10.2371 16.364C11.8981 18.0518 14.1509 19 16.5 19Z" stroke="#4A4A4A" stroke-width="2" stroke-linecap="round" stroke-linejoin="round"/>
</svg>
