<svg width="28" height="28" viewBox="0 0 28 28" fill="none" xmlns="http://www.w3.org/2000/svg">
<path d="M10.3556 20.7112C7.46136 20.7112 5.01212 19.7086 3.00791 17.7033C1.0037 15.6981 0.00106296 13.2488 8.42948e-07 10.3556C-0.00106127 7.46242 1.00157 5.01318 3.00791 3.00791C5.01424 1.00264 7.46348 0 10.3556 0C13.2478 0 15.6975 1.00264 17.7049 3.00791C19.7123 5.01318 20.7144 7.46242 20.7112 10.3556C20.7112 11.5239 20.5254 12.6259 20.1536 13.6615C19.7819 14.697 19.2774 15.6131 18.6401 16.4097L27.5619 25.3314C27.854 25.6235 28 25.9953 28 26.4467C28 26.8981 27.854 27.2698 27.5619 27.5619C27.2698 27.854 26.8981 28 26.4467 28C25.9953 28 25.6235 27.854 25.3314 27.5619L16.4097 18.6401C15.6131 19.2774 14.697 19.7819 13.6615 20.1536C12.6259 20.5254 11.5239 20.7112 10.3556 20.7112ZM10.3556 17.5249C12.3471 17.5249 14.0401 16.8281 15.4347 15.4347C16.8292 14.0412 17.526 12.3481 17.5249 10.3556C17.5238 8.36309 16.8271 6.67061 15.4347 5.27818C14.0422 3.88575 12.3492 3.18847 10.3556 3.18634C8.36203 3.18422 6.66955 3.8815 5.27818 5.27818C3.88681 6.67486 3.18953 8.36734 3.18634 10.3556C3.18316 12.3439 3.88044 14.0369 5.27818 15.4347C6.67592 16.8324 8.3684 17.5291 10.3556 17.5249Z" fill="#797979"/>
</svg>
